<svg id="visual" viewBox="0 0 900 600" width="900" height="600" xmlns="http://www.w3.org/2000/svg" xmlns:xlink="http://www.w3.org/1999/xlink" version="1.1"><g stroke-width="1" stroke-linejoin="bevel"><path d="M466 314L488 320L488 286Z" fill="#5e656d" stroke="#5e656d"></path><path d="M488 286L482 273L466 314Z" fill="#2f3943" stroke="#2f3943"></path><path d="M511 362L512 337L488 320Z" fill="#464e58" stroke="#464e58"></path><path d="M488 320L533 274L488 286Z" fill="#777d84" stroke="#777d84"></path><path d="M488 286L533 274L482 273Z" fill="#2f3943" stroke="#2f3943"></path><path d="M512 337L533 274L488 320Z" fill="#c6c9cc" stroke="#c6c9cc"></path><path d="M522 339L533 274L512 337Z" fill="#2f3943" stroke="#2f3943"></path><path d="M466 314L511 362L488 320Z" fill="#5e656d" stroke="#5e656d"></path><path d="M512 337L511 362L522 339Z" fill="#777d84" stroke="#777d84"></path><path d="M533 274L483 234L482 273Z" fill="#abafb3" stroke="#abafb3"></path><path d="M482 273L411 298L466 314Z" fill="#ffffff" stroke="#ffffff"></path><path d="M400 227L411 298L482 273Z" fill="#777d84" stroke="#777d84"></path><path d="M466 314L412 347L511 362Z" fill="#e2e4e5" stroke="#e2e4e5"></path><path d="M411 298L412 347L466 314Z" fill="#5e656d" stroke="#5e656d"></path><path d="M511 362L559 332L522 339Z" fill="#19242f" stroke="#19242f"></path><path d="M522 339L559 332L533 274Z" fill="#19242f" stroke="#19242f"></path><path d="M590 374L566 330L559 332Z" fill="#91969b" stroke="#91969b"></path><path d="M559 332L566 330L533 274Z" fill="#abafb3" stroke="#abafb3"></path><path d="M566 330L566 262L533 274Z" fill="#777d84" stroke="#777d84"></path><path d="M533 274L574 247L483 234Z" fill="#777d84" stroke="#777d84"></path><path d="M618 232L574 247L632 270Z" fill="#19242f" stroke="#19242f"></path><path d="M566 262L574 247L533 274Z" fill="#91969b" stroke="#91969b"></path><path d="M483 234L400 227L482 273Z" fill="#91969b" stroke="#91969b"></path><path d="M411 298L363 317L412 347Z" fill="#abafb3" stroke="#abafb3"></path><path d="M412 347L486 418L511 362Z" fill="#777d84" stroke="#777d84"></path><path d="M511 362L590 374L559 332Z" fill="#abafb3" stroke="#abafb3"></path><path d="M400 227L363 317L411 298Z" fill="#19242f" stroke="#19242f"></path><path d="M412 347L422 414L486 418Z" fill="#19242f" stroke="#19242f"></path><path d="M468 452L494 427L486 418Z" fill="#e2e4e5" stroke="#e2e4e5"></path><path d="M486 418L494 427L511 362Z" fill="#19242f" stroke="#19242f"></path><path d="M377 385L422 414L412 347Z" fill="#464e58" stroke="#464e58"></path><path d="M494 427L590 374L511 362Z" fill="#abafb3" stroke="#abafb3"></path><path d="M632 270L574 247L566 262Z" fill="#5e656d" stroke="#5e656d"></path><path d="M363 317L377 385L412 347Z" fill="#00101c" stroke="#00101c"></path><path d="M377 385L415 437L422 414Z" fill="#ffffff" stroke="#ffffff"></path><path d="M422 414L468 452L486 418Z" fill="#777d84" stroke="#777d84"></path><path d="M542 165L533 163L483 234Z" fill="#5e656d" stroke="#5e656d"></path><path d="M483 234L438 141L400 227Z" fill="#5e656d" stroke="#5e656d"></path><path d="M533 163L513 157L483 234Z" fill="#19242f" stroke="#19242f"></path><path d="M415 437L468 452L422 414Z" fill="#777d84" stroke="#777d84"></path><path d="M637 415L644 386L590 374Z" fill="#e2e4e5" stroke="#e2e4e5"></path><path d="M574 247L542 165L483 234Z" fill="#c6c9cc" stroke="#c6c9cc"></path><path d="M533 163L524 129L513 157Z" fill="#777d84" stroke="#777d84"></path><path d="M632 270L566 262L566 330Z" fill="#91969b" stroke="#91969b"></path><path d="M574 247L570 172L542 165Z" fill="#ffffff" stroke="#ffffff"></path><path d="M628 351L632 270L566 330Z" fill="#19242f" stroke="#19242f"></path><path d="M644 386L628 351L590 374Z" fill="#5e656d" stroke="#5e656d"></path><path d="M590 374L628 351L566 330Z" fill="#19242f" stroke="#19242f"></path><path d="M622 201L570 172L574 247Z" fill="#464e58" stroke="#464e58"></path><path d="M547 130L524 129L533 163Z" fill="#464e58" stroke="#464e58"></path><path d="M628 351L644 268L632 270Z" fill="#2f3943" stroke="#2f3943"></path><path d="M632 270L644 268L618 232Z" fill="#e2e4e5" stroke="#e2e4e5"></path><path d="M322 355L332 379L377 385Z" fill="#e2e4e5" stroke="#e2e4e5"></path><path d="M384 469L410 468L415 437Z" fill="#91969b" stroke="#91969b"></path><path d="M322 355L377 385L363 317Z" fill="#464e58" stroke="#464e58"></path><path d="M300 326L322 355L363 317Z" fill="#5e656d" stroke="#5e656d"></path><path d="M513 157L438 141L483 234Z" fill="#c6c9cc" stroke="#c6c9cc"></path><path d="M400 227L330 217L363 317Z" fill="#91969b" stroke="#91969b"></path><path d="M438 141L372 174L400 227Z" fill="#777d84" stroke="#777d84"></path><path d="M372 174L355 188L400 227Z" fill="#777d84" stroke="#777d84"></path><path d="M355 188L330 217L400 227Z" fill="#777d84" stroke="#777d84"></path><path d="M674 208L622 201L618 232Z" fill="#91969b" stroke="#91969b"></path><path d="M618 232L622 201L574 247Z" fill="#abafb3" stroke="#abafb3"></path><path d="M547 130L533 163L542 165Z" fill="#2f3943" stroke="#2f3943"></path><path d="M513 157L524 129L438 141Z" fill="#5e656d" stroke="#5e656d"></path><path d="M547 130L542 165L570 172Z" fill="#ffffff" stroke="#ffffff"></path><path d="M384 469L415 437L359 463Z" fill="#5e656d" stroke="#5e656d"></path><path d="M415 437L410 468L468 452Z" fill="#91969b" stroke="#91969b"></path><path d="M330 217L300 326L363 317Z" fill="#91969b" stroke="#91969b"></path><path d="M322 355L290 400L332 379Z" fill="#2f3943" stroke="#2f3943"></path><path d="M449 74L428 128L438 141Z" fill="#464e58" stroke="#464e58"></path><path d="M438 141L428 128L372 174Z" fill="#00101c" stroke="#00101c"></path><path d="M629 422L590 374L579 479Z" fill="#abafb3" stroke="#abafb3"></path><path d="M628 351L679 364L644 268Z" fill="#c6c9cc" stroke="#c6c9cc"></path><path d="M585 130L547 130L570 172Z" fill="#19242f" stroke="#19242f"></path><path d="M579 479L590 374L494 427Z" fill="#19242f" stroke="#19242f"></path><path d="M579 479L494 427L491 518Z" fill="#00101c" stroke="#00101c"></path><path d="M359 463L415 437L377 385Z" fill="#e2e4e5" stroke="#e2e4e5"></path><path d="M359 463L377 385L332 379Z" fill="#777d84" stroke="#777d84"></path><path d="M629 422L637 415L590 374Z" fill="#19242f" stroke="#19242f"></path><path d="M290 400L359 463L332 379Z" fill="#91969b" stroke="#91969b"></path><path d="M494 427L468 452L491 518Z" fill="#19242f" stroke="#19242f"></path><path d="M585 490L579 479L491 518Z" fill="#ffffff" stroke="#ffffff"></path><path d="M629 422L640 468L637 415Z" fill="#2f3943" stroke="#2f3943"></path><path d="M622 201L585 130L570 172Z" fill="#c6c9cc" stroke="#c6c9cc"></path><path d="M449 74L438 141L524 129Z" fill="#464e58" stroke="#464e58"></path><path d="M321 165L300 213L330 217Z" fill="#00101c" stroke="#00101c"></path><path d="M330 217L263 278L300 326Z" fill="#91969b" stroke="#91969b"></path><path d="M321 165L330 217L355 188Z" fill="#2f3943" stroke="#2f3943"></path><path d="M321 165L355 188L372 174Z" fill="#ffffff" stroke="#ffffff"></path><path d="M637 415L674 374L644 386Z" fill="#91969b" stroke="#91969b"></path><path d="M644 386L674 374L628 351Z" fill="#5e656d" stroke="#5e656d"></path><path d="M674 374L679 364L628 351Z" fill="#abafb3" stroke="#abafb3"></path><path d="M644 268L674 208L618 232Z" fill="#5e656d" stroke="#5e656d"></path><path d="M413 82L392 115L428 128Z" fill="#e2e4e5" stroke="#e2e4e5"></path><path d="M428 128L392 115L372 174Z" fill="#2f3943" stroke="#2f3943"></path><path d="M413 82L428 128L449 74Z" fill="#777d84" stroke="#777d84"></path><path d="M314 131L321 165L372 174Z" fill="#e2e4e5" stroke="#e2e4e5"></path><path d="M316 163L288 215L300 213Z" fill="#c6c9cc" stroke="#c6c9cc"></path><path d="M300 213L263 278L330 217Z" fill="#464e58" stroke="#464e58"></path><path d="M720 332L689 262L644 268Z" fill="#00101c" stroke="#00101c"></path><path d="M622 201L639 127L585 130Z" fill="#464e58" stroke="#464e58"></path><path d="M276 405L290 400L237 362Z" fill="#777d84" stroke="#777d84"></path><path d="M300 326L290 400L322 355Z" fill="#2f3943" stroke="#2f3943"></path><path d="M491 518L468 452L410 468Z" fill="#777d84" stroke="#777d84"></path><path d="M579 479L625 466L629 422Z" fill="#464e58" stroke="#464e58"></path><path d="M637 415L705 431L674 374Z" fill="#e2e4e5" stroke="#e2e4e5"></path><path d="M491 518L410 468L482 534Z" fill="#19242f" stroke="#19242f"></path><path d="M493 529L491 518L482 534Z" fill="#c6c9cc" stroke="#c6c9cc"></path><path d="M689 262L674 208L644 268Z" fill="#c6c9cc" stroke="#c6c9cc"></path><path d="M321 165L316 163L300 213Z" fill="#2f3943" stroke="#2f3943"></path><path d="M314 131L316 163L321 165Z" fill="#2f3943" stroke="#2f3943"></path><path d="M585 490L625 466L579 479Z" fill="#91969b" stroke="#91969b"></path><path d="M288 215L263 278L300 213Z" fill="#2f3943" stroke="#2f3943"></path><path d="M482 534L410 468L435 553Z" fill="#ffffff" stroke="#ffffff"></path><path d="M491 518L493 529L585 490Z" fill="#ffffff" stroke="#ffffff"></path><path d="M237 362L290 400L300 326Z" fill="#c6c9cc" stroke="#c6c9cc"></path><path d="M290 400L257 453L359 463Z" fill="#19242f" stroke="#19242f"></path><path d="M622 522L626 480L585 490Z" fill="#777d84" stroke="#777d84"></path><path d="M585 490L626 480L625 466Z" fill="#abafb3" stroke="#abafb3"></path><path d="M625 466L640 468L629 422Z" fill="#ffffff" stroke="#ffffff"></path><path d="M744 370L720 332L679 364Z" fill="#19242f" stroke="#19242f"></path><path d="M626 480L640 468L625 466Z" fill="#ffffff" stroke="#ffffff"></path><path d="M435 553L410 468L384 469Z" fill="#ffffff" stroke="#ffffff"></path><path d="M536 586L622 522L585 490Z" fill="#91969b" stroke="#91969b"></path><path d="M449 74L524 129L556 38Z" fill="#00101c" stroke="#00101c"></path><path d="M392 115L314 131L372 174Z" fill="#464e58" stroke="#464e58"></path><path d="M556 38L524 129L547 130Z" fill="#2f3943" stroke="#2f3943"></path><path d="M682 139L639 127L622 201Z" fill="#91969b" stroke="#91969b"></path><path d="M585 130L556 38L547 130Z" fill="#abafb3" stroke="#abafb3"></path><path d="M311 122L314 131L392 115Z" fill="#5e656d" stroke="#5e656d"></path><path d="M228 167L250 230L288 215Z" fill="#5e656d" stroke="#5e656d"></path><path d="M288 215L250 230L263 278Z" fill="#e2e4e5" stroke="#e2e4e5"></path><path d="M744 370L679 364L736 404Z" fill="#777d84" stroke="#777d84"></path><path d="M679 364L720 332L644 268Z" fill="#19242f" stroke="#19242f"></path><path d="M706 110L682 139L735 135Z" fill="#2f3943" stroke="#2f3943"></path><path d="M228 167L288 215L316 163Z" fill="#91969b" stroke="#91969b"></path><path d="M263 278L237 362L300 326Z" fill="#777d84" stroke="#777d84"></path><path d="M262 479L337 504L359 463Z" fill="#19242f" stroke="#19242f"></path><path d="M359 463L337 504L384 469Z" fill="#00101c" stroke="#00101c"></path><path d="M326 78L311 122L392 115Z" fill="#00101c" stroke="#00101c"></path><path d="M314 131L263 118L316 163Z" fill="#ffffff" stroke="#ffffff"></path><path d="M213 285L237 362L263 278Z" fill="#c6c9cc" stroke="#c6c9cc"></path><path d="M276 405L257 453L290 400Z" fill="#c6c9cc" stroke="#c6c9cc"></path><path d="M337 504L435 553L384 469Z" fill="#e2e4e5" stroke="#e2e4e5"></path><path d="M536 586L585 490L493 529Z" fill="#5e656d" stroke="#5e656d"></path><path d="M667 521L705 431L640 468Z" fill="#ffffff" stroke="#ffffff"></path><path d="M640 468L705 431L637 415Z" fill="#19242f" stroke="#19242f"></path><path d="M682 139L674 208L735 135Z" fill="#c6c9cc" stroke="#c6c9cc"></path><path d="M674 208L682 139L622 201Z" fill="#e2e4e5" stroke="#e2e4e5"></path><path d="M536 586L493 529L482 534Z" fill="#e2e4e5" stroke="#e2e4e5"></path><path d="M626 480L667 521L640 468Z" fill="#00101c" stroke="#00101c"></path><path d="M413 82L374 58L392 115Z" fill="#c6c9cc" stroke="#c6c9cc"></path><path d="M406 46L374 58L413 82Z" fill="#5e656d" stroke="#5e656d"></path><path d="M463 16L406 46L449 74Z" fill="#5e656d" stroke="#5e656d"></path><path d="M449 74L406 46L413 82Z" fill="#777d84" stroke="#777d84"></path><path d="M556 38L585 130L630 60Z" fill="#19242f" stroke="#19242f"></path><path d="M187 222L213 285L250 230Z" fill="#e2e4e5" stroke="#e2e4e5"></path><path d="M250 230L213 285L263 278Z" fill="#2f3943" stroke="#2f3943"></path><path d="M177 401L276 405L237 362Z" fill="#ffffff" stroke="#ffffff"></path><path d="M177 401L257 453L276 405Z" fill="#5e656d" stroke="#5e656d"></path><path d="M280 523L333 530L337 504Z" fill="#e2e4e5" stroke="#e2e4e5"></path><path d="M337 504L333 530L435 553Z" fill="#777d84" stroke="#777d84"></path><path d="M736 404L679 364L674 374Z" fill="#00101c" stroke="#00101c"></path><path d="M772 243L674 208L689 262Z" fill="#abafb3" stroke="#abafb3"></path><path d="M374 58L326 78L392 115Z" fill="#ffffff" stroke="#ffffff"></path><path d="M311 122L263 118L314 131Z" fill="#777d84" stroke="#777d84"></path><path d="M775 419L736 404L769 464Z" fill="#5e656d" stroke="#5e656d"></path><path d="M705 431L736 404L674 374Z" fill="#e2e4e5" stroke="#e2e4e5"></path><path d="M630 60L585 130L639 127Z" fill="#ffffff" stroke="#ffffff"></path><path d="M706 110L683 113L682 139Z" fill="#2f3943" stroke="#2f3943"></path><path d="M682 139L683 113L639 127Z" fill="#91969b" stroke="#91969b"></path><path d="M263 486L262 479L231 520Z" fill="#c6c9cc" stroke="#c6c9cc"></path><path d="M257 453L262 479L359 463Z" fill="#19242f" stroke="#19242f"></path><path d="M446 600L447 583L405 600Z" fill="#e2e4e5" stroke="#e2e4e5"></path><path d="M435 553L447 583L482 534Z" fill="#00101c" stroke="#00101c"></path><path d="M231 520L262 479L187 473Z" fill="#464e58" stroke="#464e58"></path><path d="M262 479L263 486L337 504Z" fill="#91969b" stroke="#91969b"></path><path d="M683 113L630 60L639 127Z" fill="#91969b" stroke="#91969b"></path><path d="M326 78L263 118L311 122Z" fill="#ffffff" stroke="#ffffff"></path><path d="M674 553L667 521L622 522Z" fill="#5e656d" stroke="#5e656d"></path><path d="M622 522L667 521L626 480Z" fill="#2f3943" stroke="#2f3943"></path><path d="M263 118L228 167L316 163Z" fill="#00101c" stroke="#00101c"></path><path d="M556 38L463 16L449 74Z" fill="#00101c" stroke="#00101c"></path><path d="M406 46L385 0L374 58Z" fill="#5e656d" stroke="#5e656d"></path><path d="M374 58L292 0L326 78Z" fill="#e2e4e5" stroke="#e2e4e5"></path><path d="M524 600L536 586L482 534Z" fill="#91969b" stroke="#91969b"></path><path d="M165 294L195 356L213 285Z" fill="#abafb3" stroke="#abafb3"></path><path d="M213 285L195 356L237 362Z" fill="#00101c" stroke="#00101c"></path><path d="M772 243L689 262L720 332Z" fill="#777d84" stroke="#777d84"></path><path d="M683 113L675 24L630 60Z" fill="#00101c" stroke="#00101c"></path><path d="M263 118L242 127L228 167Z" fill="#464e58" stroke="#464e58"></path><path d="M212 80L242 127L263 118Z" fill="#91969b" stroke="#91969b"></path><path d="M796 273L772 243L720 332Z" fill="#19242f" stroke="#19242f"></path><path d="M263 486L280 523L337 504Z" fill="#ffffff" stroke="#ffffff"></path><path d="M405 600L447 583L435 553Z" fill="#19242f" stroke="#19242f"></path><path d="M231 520L280 523L263 486Z" fill="#2f3943" stroke="#2f3943"></path><path d="M405 600L435 553L339 584Z" fill="#abafb3" stroke="#abafb3"></path><path d="M447 583L524 600L482 534Z" fill="#abafb3" stroke="#abafb3"></path><path d="M446 600L524 600L447 583Z" fill="#00101c" stroke="#00101c"></path><path d="M630 583L674 553L622 522Z" fill="#abafb3" stroke="#abafb3"></path><path d="M524 600L530 600L536 586Z" fill="#777d84" stroke="#777d84"></path><path d="M775 419L781 334L744 370Z" fill="#ffffff" stroke="#ffffff"></path><path d="M744 370L781 334L720 332Z" fill="#ffffff" stroke="#ffffff"></path><path d="M789 326L781 334L830 368Z" fill="#777d84" stroke="#777d84"></path><path d="M556 38L480 0L463 16Z" fill="#00101c" stroke="#00101c"></path><path d="M463 16L427 0L406 46Z" fill="#19242f" stroke="#19242f"></path><path d="M539 0L480 0L556 38Z" fill="#777d84" stroke="#777d84"></path><path d="M480 0L458 0L463 16Z" fill="#5e656d" stroke="#5e656d"></path><path d="M326 78L212 80L263 118Z" fill="#abafb3" stroke="#abafb3"></path><path d="M796 273L777 233L772 243Z" fill="#19242f" stroke="#19242f"></path><path d="M772 243L777 233L674 208Z" fill="#19242f" stroke="#19242f"></path><path d="M786 173L735 135L674 208Z" fill="#00101c" stroke="#00101c"></path><path d="M182 217L187 222L228 167Z" fill="#5e656d" stroke="#5e656d"></path><path d="M228 167L187 222L250 230Z" fill="#e2e4e5" stroke="#e2e4e5"></path><path d="M339 584L435 553L333 530Z" fill="#ffffff" stroke="#ffffff"></path><path d="M458 0L427 0L463 16Z" fill="#e2e4e5" stroke="#e2e4e5"></path><path d="M627 22L556 38L630 60Z" fill="#91969b" stroke="#91969b"></path><path d="M598 0L539 0L556 38Z" fill="#91969b" stroke="#91969b"></path><path d="M775 419L744 370L736 404Z" fill="#abafb3" stroke="#abafb3"></path><path d="M781 334L789 326L720 332Z" fill="#e2e4e5" stroke="#e2e4e5"></path><path d="M138 210L182 217L141 164Z" fill="#ffffff" stroke="#ffffff"></path><path d="M160 286L165 294L213 285Z" fill="#abafb3" stroke="#abafb3"></path><path d="M264 577L339 584L333 530Z" fill="#e2e4e5" stroke="#e2e4e5"></path><path d="M630 583L622 522L593 600Z" fill="#777d84" stroke="#777d84"></path><path d="M769 464L736 404L705 431Z" fill="#e2e4e5" stroke="#e2e4e5"></path><path d="M160 286L213 285L187 222Z" fill="#c6c9cc" stroke="#c6c9cc"></path><path d="M733 515L705 431L667 521Z" fill="#ffffff" stroke="#ffffff"></path><path d="M789 326L796 273L720 332Z" fill="#464e58" stroke="#464e58"></path><path d="M777 233L786 173L674 208Z" fill="#777d84" stroke="#777d84"></path><path d="M629 0L627 22L675 24Z" fill="#2f3943" stroke="#2f3943"></path><path d="M675 24L627 22L630 60Z" fill="#777d84" stroke="#777d84"></path><path d="M138 210L174 223L182 217Z" fill="#ffffff" stroke="#ffffff"></path><path d="M182 217L174 223L187 222Z" fill="#5e656d" stroke="#5e656d"></path><path d="M593 600L622 522L536 586Z" fill="#5e656d" stroke="#5e656d"></path><path d="M530 600L593 600L536 586Z" fill="#19242f" stroke="#19242f"></path><path d="M427 0L385 0L406 46Z" fill="#abafb3" stroke="#abafb3"></path><path d="M147 393L177 401L195 356Z" fill="#5e656d" stroke="#5e656d"></path><path d="M195 356L177 401L237 362Z" fill="#c6c9cc" stroke="#c6c9cc"></path><path d="M174 223L160 286L187 222Z" fill="#00101c" stroke="#00101c"></path><path d="M165 294L150 320L195 356Z" fill="#abafb3" stroke="#abafb3"></path><path d="M627 22L598 0L556 38Z" fill="#00101c" stroke="#00101c"></path><path d="M730 531L733 515L667 521Z" fill="#5e656d" stroke="#5e656d"></path><path d="M730 531L667 521L674 553Z" fill="#464e58" stroke="#464e58"></path><path d="M733 515L769 464L705 431Z" fill="#777d84" stroke="#777d84"></path><path d="M833 289L827 286L789 326Z" fill="#464e58" stroke="#464e58"></path><path d="M187 473L262 479L257 453Z" fill="#2f3943" stroke="#2f3943"></path><path d="M329 600L334 600L339 584Z" fill="#c6c9cc" stroke="#c6c9cc"></path><path d="M160 286L150 320L165 294Z" fill="#e2e4e5" stroke="#e2e4e5"></path><path d="M134 329L150 320L160 286Z" fill="#00101c" stroke="#00101c"></path><path d="M329 600L339 584L264 577Z" fill="#5e656d" stroke="#5e656d"></path><path d="M339 584L334 600L405 600Z" fill="#e2e4e5" stroke="#e2e4e5"></path><path d="M862 168L786 173L777 233Z" fill="#e2e4e5" stroke="#e2e4e5"></path><path d="M735 135L760 117L706 110Z" fill="#777d84" stroke="#777d84"></path><path d="M264 577L333 530L280 523Z" fill="#464e58" stroke="#464e58"></path><path d="M782 154L760 117L735 135Z" fill="#19242f" stroke="#19242f"></path><path d="M627 22L629 0L598 0Z" fill="#777d84" stroke="#777d84"></path><path d="M786 173L782 154L735 135Z" fill="#2f3943" stroke="#2f3943"></path><path d="M675 24L683 113L706 110Z" fill="#91969b" stroke="#91969b"></path><path d="M721 600L730 531L674 553Z" fill="#91969b" stroke="#91969b"></path><path d="M834 514L839 493L769 464Z" fill="#5e656d" stroke="#5e656d"></path><path d="M177 401L187 473L257 453Z" fill="#abafb3" stroke="#abafb3"></path><path d="M173 475L187 473L144 426Z" fill="#19242f" stroke="#19242f"></path><path d="M745 51L675 24L706 110Z" fill="#19242f" stroke="#19242f"></path><path d="M134 329L147 393L195 356Z" fill="#19242f" stroke="#19242f"></path><path d="M593 600L658 600L630 583Z" fill="#00101c" stroke="#00101c"></path><path d="M630 583L658 600L674 553Z" fill="#464e58" stroke="#464e58"></path><path d="M789 326L827 286L796 273Z" fill="#19242f" stroke="#19242f"></path><path d="M796 273L827 286L777 233Z" fill="#5e656d" stroke="#5e656d"></path><path d="M810 139L777 109L782 154Z" fill="#ffffff" stroke="#ffffff"></path><path d="M833 289L789 326L830 368Z" fill="#2f3943" stroke="#2f3943"></path><path d="M172 582L230 543L231 520Z" fill="#00101c" stroke="#00101c"></path><path d="M231 520L230 543L280 523Z" fill="#00101c" stroke="#00101c"></path><path d="M74 327L134 329L61 270Z" fill="#e2e4e5" stroke="#e2e4e5"></path><path d="M150 320L134 329L195 356Z" fill="#464e58" stroke="#464e58"></path><path d="M292 0L212 80L326 78Z" fill="#abafb3" stroke="#abafb3"></path><path d="M242 127L175 87L228 167Z" fill="#e2e4e5" stroke="#e2e4e5"></path><path d="M174 223L138 210L160 286Z" fill="#2f3943" stroke="#2f3943"></path><path d="M230 543L264 577L280 523Z" fill="#c6c9cc" stroke="#c6c9cc"></path><path d="M830 368L781 334L775 419Z" fill="#19242f" stroke="#19242f"></path><path d="M862 168L810 139L786 173Z" fill="#e2e4e5" stroke="#e2e4e5"></path><path d="M187 473L173 475L231 520Z" fill="#c6c9cc" stroke="#c6c9cc"></path><path d="M144 426L187 473L177 401Z" fill="#ffffff" stroke="#ffffff"></path><path d="M782 154L777 109L760 117Z" fill="#5e656d" stroke="#5e656d"></path><path d="M760 117L745 51L706 110Z" fill="#777d84" stroke="#777d84"></path><path d="M810 139L782 154L786 173Z" fill="#abafb3" stroke="#abafb3"></path><path d="M884 339L830 368L882 368Z" fill="#2f3943" stroke="#2f3943"></path><path d="M879 397L830 368L854 473Z" fill="#19242f" stroke="#19242f"></path><path d="M141 164L182 217L228 167Z" fill="#91969b" stroke="#91969b"></path><path d="M385 0L292 0L374 58Z" fill="#777d84" stroke="#777d84"></path><path d="M147 393L144 426L177 401Z" fill="#5e656d" stroke="#5e656d"></path><path d="M132 450L144 426L77 391Z" fill="#ffffff" stroke="#ffffff"></path><path d="M779 86L745 51L760 117Z" fill="#c6c9cc" stroke="#c6c9cc"></path><path d="M675 24L688 0L629 0Z" fill="#ffffff" stroke="#ffffff"></path><path d="M720 0L688 0L675 24Z" fill="#464e58" stroke="#464e58"></path><path d="M175 87L141 164L228 167Z" fill="#e2e4e5" stroke="#e2e4e5"></path><path d="M777 109L779 86L760 117Z" fill="#ffffff" stroke="#ffffff"></path><path d="M862 168L777 233L900 229Z" fill="#464e58" stroke="#464e58"></path><path d="M183 600L263 600L264 577Z" fill="#777d84" stroke="#777d84"></path><path d="M264 577L263 600L329 600Z" fill="#ffffff" stroke="#ffffff"></path><path d="M183 600L264 577L230 543Z" fill="#00101c" stroke="#00101c"></path><path d="M815 123L779 86L777 109Z" fill="#e2e4e5" stroke="#e2e4e5"></path><path d="M162 63L175 87L212 80Z" fill="#777d84" stroke="#777d84"></path><path d="M212 80L175 87L242 127Z" fill="#5e656d" stroke="#5e656d"></path><path d="M144 426L132 450L173 475Z" fill="#5e656d" stroke="#5e656d"></path><path d="M173 475L172 582L231 520Z" fill="#abafb3" stroke="#abafb3"></path><path d="M77 391L144 426L147 393Z" fill="#ffffff" stroke="#ffffff"></path><path d="M862 168L815 123L810 139Z" fill="#5e656d" stroke="#5e656d"></path><path d="M810 139L815 123L777 109Z" fill="#777d84" stroke="#777d84"></path><path d="M782 0L736 20L745 51Z" fill="#464e58" stroke="#464e58"></path><path d="M745 51L736 20L675 24Z" fill="#91969b" stroke="#91969b"></path><path d="M782 0L745 51L779 86Z" fill="#777d84" stroke="#777d84"></path><path d="M658 600L721 600L674 553Z" fill="#ffffff" stroke="#ffffff"></path><path d="M730 531L760 568L733 515Z" fill="#19242f" stroke="#19242f"></path><path d="M721 600L760 568L730 531Z" fill="#91969b" stroke="#91969b"></path><path d="M736 20L720 0L675 24Z" fill="#00101c" stroke="#00101c"></path><path d="M292 0L235 0L212 80Z" fill="#ffffff" stroke="#ffffff"></path><path d="M721 600L734 600L760 568Z" fill="#5e656d" stroke="#5e656d"></path><path d="M141 164L109 181L138 210Z" fill="#777d84" stroke="#777d84"></path><path d="M74 327L84 364L134 329Z" fill="#abafb3" stroke="#abafb3"></path><path d="M134 329L84 364L147 393Z" fill="#777d84" stroke="#777d84"></path><path d="M87 181L109 181L78 177Z" fill="#464e58" stroke="#464e58"></path><path d="M104 84L141 164L175 87Z" fill="#777d84" stroke="#777d84"></path><path d="M235 0L204 16L212 80Z" fill="#91969b" stroke="#91969b"></path><path d="M204 16L162 63L212 80Z" fill="#2f3943" stroke="#2f3943"></path><path d="M134 329L160 286L61 270Z" fill="#19242f" stroke="#19242f"></path><path d="M900 229L777 233L827 286Z" fill="#464e58" stroke="#464e58"></path><path d="M827 13L782 0L779 86Z" fill="#abafb3" stroke="#abafb3"></path><path d="M736 20L782 0L720 0Z" fill="#19242f" stroke="#19242f"></path><path d="M900 229L827 286L833 289Z" fill="#777d84" stroke="#777d84"></path><path d="M854 473L775 419L769 464Z" fill="#c6c9cc" stroke="#c6c9cc"></path><path d="M830 368L884 339L833 289Z" fill="#19242f" stroke="#19242f"></path><path d="M834 514L733 515L760 568Z" fill="#00101c" stroke="#00101c"></path><path d="M834 514L769 464L733 515Z" fill="#19242f" stroke="#19242f"></path><path d="M879 397L882 368L830 368Z" fill="#c6c9cc" stroke="#c6c9cc"></path><path d="M61 270L160 286L138 210Z" fill="#2f3943" stroke="#2f3943"></path><path d="M854 473L830 368L775 419Z" fill="#abafb3" stroke="#abafb3"></path><path d="M839 493L854 473L769 464Z" fill="#e2e4e5" stroke="#e2e4e5"></path><path d="M798 600L834 514L760 568Z" fill="#e2e4e5" stroke="#e2e4e5"></path><path d="M900 514L900 466L854 473Z" fill="#abafb3" stroke="#abafb3"></path><path d="M235 0L202 0L204 16Z" fill="#777d84" stroke="#777d84"></path><path d="M204 16L170 0L162 63Z" fill="#00101c" stroke="#00101c"></path><path d="M78 177L109 181L104 84Z" fill="#777d84" stroke="#777d84"></path><path d="M109 181L60 223L138 210Z" fill="#e2e4e5" stroke="#e2e4e5"></path><path d="M109 181L141 164L104 84Z" fill="#00101c" stroke="#00101c"></path><path d="M54 372L77 391L84 364Z" fill="#ffffff" stroke="#ffffff"></path><path d="M84 364L77 391L147 393Z" fill="#abafb3" stroke="#abafb3"></path><path d="M87 530L172 582L173 475Z" fill="#abafb3" stroke="#abafb3"></path><path d="M161 600L172 582L125 600Z" fill="#e2e4e5" stroke="#e2e4e5"></path><path d="M900 383L884 339L882 368Z" fill="#19242f" stroke="#19242f"></path><path d="M900 383L900 314L884 339Z" fill="#abafb3" stroke="#abafb3"></path><path d="M884 339L900 314L833 289Z" fill="#abafb3" stroke="#abafb3"></path><path d="M900 314L900 282L833 289Z" fill="#abafb3" stroke="#abafb3"></path><path d="M172 582L183 600L230 543Z" fill="#c6c9cc" stroke="#c6c9cc"></path><path d="M60 223L61 270L138 210Z" fill="#464e58" stroke="#464e58"></path><path d="M74 327L54 372L84 364Z" fill="#19242f" stroke="#19242f"></path><path d="M127 66L175 87L162 63Z" fill="#ffffff" stroke="#ffffff"></path><path d="M87 181L60 223L109 181Z" fill="#19242f" stroke="#19242f"></path><path d="M900 282L900 229L833 289Z" fill="#2f3943" stroke="#2f3943"></path><path d="M170 0L127 66L162 63Z" fill="#c6c9cc" stroke="#c6c9cc"></path><path d="M879 397L900 383L882 368Z" fill="#c6c9cc" stroke="#c6c9cc"></path><path d="M900 466L900 383L879 397Z" fill="#464e58" stroke="#464e58"></path><path d="M900 466L879 397L854 473Z" fill="#abafb3" stroke="#abafb3"></path><path d="M900 147L815 123L862 168Z" fill="#abafb3" stroke="#abafb3"></path><path d="M827 13L779 86L815 123Z" fill="#777d84" stroke="#777d84"></path><path d="M78 177L60 223L87 181Z" fill="#ffffff" stroke="#ffffff"></path><path d="M900 229L900 199L862 168Z" fill="#abafb3" stroke="#abafb3"></path><path d="M0 327L54 372L74 327Z" fill="#5e656d" stroke="#5e656d"></path><path d="M87 530L173 475L132 450Z" fill="#777d84" stroke="#777d84"></path><path d="M14 286L74 327L61 270Z" fill="#ffffff" stroke="#ffffff"></path><path d="M202 0L170 0L204 16Z" fill="#00101c" stroke="#00101c"></path><path d="M734 600L798 600L760 568Z" fill="#c6c9cc" stroke="#c6c9cc"></path><path d="M900 514L854 473L839 493Z" fill="#5e656d" stroke="#5e656d"></path><path d="M77 68L104 84L127 66Z" fill="#777d84" stroke="#777d84"></path><path d="M127 66L104 84L175 87Z" fill="#abafb3" stroke="#abafb3"></path><path d="M0 230L61 270L60 223Z" fill="#464e58" stroke="#464e58"></path><path d="M74 472L132 450L77 391Z" fill="#2f3943" stroke="#2f3943"></path><path d="M172 582L161 600L183 600Z" fill="#ffffff" stroke="#ffffff"></path><path d="M36 466L74 472L77 391Z" fill="#c6c9cc" stroke="#c6c9cc"></path><path d="M900 199L900 147L862 168Z" fill="#c6c9cc" stroke="#c6c9cc"></path><path d="M900 514L839 493L834 514Z" fill="#777d84" stroke="#777d84"></path><path d="M900 65L827 13L815 123Z" fill="#19242f" stroke="#19242f"></path><path d="M74 472L87 530L132 450Z" fill="#91969b" stroke="#91969b"></path><path d="M798 600L831 600L834 514Z" fill="#abafb3" stroke="#abafb3"></path><path d="M87 530L125 600L172 582Z" fill="#c6c9cc" stroke="#c6c9cc"></path><path d="M0 230L60 223L0 229Z" fill="#2f3943" stroke="#2f3943"></path><path d="M0 230L14 286L61 270Z" fill="#5e656d" stroke="#5e656d"></path><path d="M17 417L36 466L77 391Z" fill="#abafb3" stroke="#abafb3"></path><path d="M74 472L33 528L87 530Z" fill="#2f3943" stroke="#2f3943"></path><path d="M55 48L77 68L77 0Z" fill="#91969b" stroke="#91969b"></path><path d="M104 84L16 136L78 177Z" fill="#91969b" stroke="#91969b"></path><path d="M831 600L866 568L834 514Z" fill="#c6c9cc" stroke="#c6c9cc"></path><path d="M900 542L900 514L834 514Z" fill="#777d84" stroke="#777d84"></path><path d="M17 417L77 391L54 372Z" fill="#464e58" stroke="#464e58"></path><path d="M87 530L19 600L125 600Z" fill="#777d84" stroke="#777d84"></path><path d="M900 44L846 0L827 13Z" fill="#00101c" stroke="#00101c"></path><path d="M827 13L846 0L782 0Z" fill="#c6c9cc" stroke="#c6c9cc"></path><path d="M0 369L17 417L54 372Z" fill="#91969b" stroke="#91969b"></path><path d="M14 286L0 327L74 327Z" fill="#464e58" stroke="#464e58"></path><path d="M0 230L0 327L14 286Z" fill="#2f3943" stroke="#2f3943"></path><path d="M900 147L900 65L815 123Z" fill="#abafb3" stroke="#abafb3"></path><path d="M900 600L900 542L866 568Z" fill="#abafb3" stroke="#abafb3"></path><path d="M866 568L900 542L834 514Z" fill="#e2e4e5" stroke="#e2e4e5"></path><path d="M0 327L0 369L54 372Z" fill="#abafb3" stroke="#abafb3"></path><path d="M0 229L60 223L16 136Z" fill="#777d84" stroke="#777d84"></path><path d="M16 136L60 223L78 177Z" fill="#ffffff" stroke="#ffffff"></path><path d="M0 369L0 408L17 417Z" fill="#c6c9cc" stroke="#c6c9cc"></path><path d="M17 417L0 464L36 466Z" fill="#2f3943" stroke="#2f3943"></path><path d="M900 65L900 44L827 13Z" fill="#19242f" stroke="#19242f"></path><path d="M0 408L0 412L17 417Z" fill="#c6c9cc" stroke="#c6c9cc"></path><path d="M36 466L33 528L74 472Z" fill="#5e656d" stroke="#5e656d"></path><path d="M77 68L16 136L104 84Z" fill="#ffffff" stroke="#ffffff"></path><path d="M77 0L77 68L127 66Z" fill="#ffffff" stroke="#ffffff"></path><path d="M77 68L18 78L16 136Z" fill="#91969b" stroke="#91969b"></path><path d="M0 464L33 528L36 466Z" fill="#abafb3" stroke="#abafb3"></path><path d="M170 0L77 0L127 66Z" fill="#ffffff" stroke="#ffffff"></path><path d="M77 0L76 0L55 48Z" fill="#5e656d" stroke="#5e656d"></path><path d="M0 114L0 129L16 136Z" fill="#777d84" stroke="#777d84"></path><path d="M0 412L0 464L17 417Z" fill="#00101c" stroke="#00101c"></path><path d="M18 78L77 68L55 48Z" fill="#5e656d" stroke="#5e656d"></path><path d="M16 136L0 129L0 229Z" fill="#ffffff" stroke="#ffffff"></path><path d="M831 600L900 600L866 568Z" fill="#00101c" stroke="#00101c"></path><path d="M0 40L18 78L55 48Z" fill="#5e656d" stroke="#5e656d"></path><path d="M18 78L0 114L16 136Z" fill="#e2e4e5" stroke="#e2e4e5"></path><path d="M900 44L900 0L846 0Z" fill="#2f3943" stroke="#2f3943"></path><path d="M0 464L0 546L33 528Z" fill="#2f3943" stroke="#2f3943"></path><path d="M33 528L19 600L87 530Z" fill="#abafb3" stroke="#abafb3"></path><path d="M0 0L0 40L55 48Z" fill="#5e656d" stroke="#5e656d"></path><path d="M18 78L0 40L0 114Z" fill="#e2e4e5" stroke="#e2e4e5"></path><path d="M0 546L19 600L33 528Z" fill="#2f3943" stroke="#2f3943"></path><path d="M0 546L0 600L19 600Z" fill="#464e58" stroke="#464e58"></path><path d="M76 0L0 0L55 48Z" fill="#00101c" stroke="#00101c"></path></g></svg>